<svg width="96" height="96" xmlns="http://www.w3.org/2000/svg" xmlns:xlink="http://www.w3.org/1999/xlink" overflow="hidden"><defs><clipPath id="clip0"><rect x="0" y="0" width="96" height="96"/></clipPath></defs><g clip-path="url(#clip0)"><path d="M0 0 96 0 96 96 0 96Z" fill="#272A32" fill-rule="evenodd"/><path d="M61.6923 0.359729 66.6425 5.30231 52.9582 19.0078 48.008 14.0653Z" fill="#21242E" fill-rule="evenodd"/><path d="M91.0417 28.9922 95.9919 33.9347 82.3076 47.6403 77.3574 42.6977Z" fill="#21242E" fill-rule="evenodd"/><path d="M48.1599 34.2976 53.2925 29.1571 66.4907 42.3349 61.3581 47.4754Z" fill="#21242E" fill-rule="evenodd"/><path d="M77.5092 5.66511 82.6417 0.524611 95.84 13.7024 90.7074 18.8429Z" fill="#21242E" fill-rule="evenodd"/><path d="M13.6923 0.359729 18.6425 5.30231 4.9582 19.0078 0.007967 14.0653Z" fill="#21242E" fill-rule="evenodd"/><path d="M43.0417 28.9922 47.9919 33.9347 34.3076 47.6403 29.3574 42.6977Z" fill="#21242E" fill-rule="evenodd"/><path d="M0.159906 34.2976 5.29246 29.1571 18.4907 42.3349 13.3581 47.4754Z" fill="#21242E" fill-rule="evenodd"/><path d="M29.5092 5.66511 34.6418 0.524611 47.84 13.7024 42.7074 18.8429Z" fill="#21242E" fill-rule="evenodd"/><path d="M61.6923 48.3597 66.6425 53.3023 52.9582 67.0078 48.008 62.0653Z" fill="#21242E" fill-rule="evenodd"/><path d="M91.0417 76.9922 95.9919 81.9348 82.3076 95.6403 77.3574 90.6977Z" fill="#21242E" fill-rule="evenodd"/><path d="M48.1599 82.2976 53.2925 77.1571 66.4907 90.3349 61.3581 95.4754Z" fill="#21242E" fill-rule="evenodd"/><path d="M77.5092 53.6651 82.6417 48.5246 95.84 61.7024 90.7074 66.8429Z" fill="#21242E" fill-rule="evenodd"/><path d="M13.6923 48.3597 18.6425 53.3023 4.9582 67.0078 0.007967 62.0653Z" fill="#21242E" fill-rule="evenodd"/><path d="M43.0417 76.9922 47.9919 81.9348 34.3076 95.6403 29.3574 90.6977Z" fill="#21242E" fill-rule="evenodd"/><path d="M0.159906 82.2976 5.29246 77.1571 18.4907 90.3349 13.3581 95.4754Z" fill="#21242E" fill-rule="evenodd"/><path d="M29.5092 53.6651 34.6418 48.5246 47.84 61.7024 42.7074 66.8429Z" fill="#21242E" fill-rule="evenodd"/></g></svg>