<svg width="1280" height="570" xmlns="http://www.w3.org/2000/svg" xmlns:xlink="http://www.w3.org/1999/xlink" overflow="hidden"><defs><clipPath id="clip0"><rect x="0" y="0" width="1280" height="570"/></clipPath><clipPath id="clip1"><rect x="91" y="257" width="51" height="52"/></clipPath><clipPath id="clip2"><rect x="91" y="257" width="51" height="52"/></clipPath><clipPath id="clip3"><rect x="91" y="257" width="51" height="52"/></clipPath><clipPath id="clip4"><rect x="744" y="412" width="51" height="52"/></clipPath><clipPath id="clip5"><rect x="744" y="412" width="51" height="52"/></clipPath><clipPath id="clip6"><rect x="744" y="412" width="51" height="52"/></clipPath><clipPath id="clip7"><rect x="134" y="443" width="66" height="67"/></clipPath><clipPath id="clip8"><rect x="134" y="443" width="66" height="67"/></clipPath><clipPath id="clip9"><rect x="134" y="443" width="66" height="67"/></clipPath><clipPath id="clip10"><rect x="177" y="145" width="58" height="59"/></clipPath><clipPath id="clip11"><rect x="177" y="145" width="58" height="59"/></clipPath><clipPath id="clip12"><rect x="177" y="145" width="58" height="59"/></clipPath><clipPath id="clip13"><rect x="1072" y="294" width="63" height="64"/></clipPath><clipPath id="clip14"><rect x="1072" y="294" width="63" height="64"/></clipPath><clipPath id="clip15"><rect x="1072" y="294" width="63" height="64"/></clipPath><clipPath id="clip16"><rect x="843" y="27" width="60" height="61"/></clipPath><clipPath id="clip17"><rect x="843" y="27" width="60" height="61"/></clipPath><clipPath id="clip18"><rect x="843" y="27" width="60" height="61"/></clipPath></defs><g clip-path="url(#clip0)"><rect x="0" y="0" width="1280" height="569.833" fill="#F5F5F6"/><path d="M917.951 342.464C917.371 342.039 916.57 342.103 916.064 342.613 912.878 345.805 911.086 350.142 911.084 354.666 911.094 356.778 911.56 358.862 912.451 360.774 913.428 359.457 914.971 358.687 916.605 358.702 917.531 358.924 918.417 359.291 919.23 359.789L919.564 359.963C919.862 360.135 920.01 360.485 919.926 360.821 919.319 363 917.762 364.783 915.692 365.668L915.692 365.678C918.043 368.255 920.221 370.179 921.078 375.452 921.643 378.945 919.286 382.237 915.815 382.805 914.636 382.998 913.428 382.853 912.327 382.388 908.013 380.579 904.341 377.503 901.791 373.562 899.851 374.675 897.514 374.845 895.435 374.025 895.129 373.892 894.953 373.564 895.011 373.233L895.069 372.871C895.157 371.914 895.394 370.978 895.771 370.096 896.15 369.553 896.637 369.094 897.2 368.749 897.808 368.386 898.481 368.147 899.181 368.046 898.482 365.827 898.128 363.513 898.129 361.186 898.182 350.948 904.934 341.969 914.711 339.138 915.444 338.923 916.011 338.336 916.204 337.592 916.891 335.408 918.486 333.631 920.576 332.72 921.439 332.306 922.362 332.03 923.31 331.903 923.738 333.315 923.526 334.845 922.731 336.086 922.075 337.211 922.45 338.658 923.569 339.318 923.682 339.385 923.801 339.442 923.924 339.489 925.324 339.951 926.45 341.012 927 342.388 926.181 342.886 925.29 343.253 924.359 343.474 922.178 344.078 919.844 343.71 917.951 342.464Z" fill="#F0513D" fill-rule="evenodd"/><path d="M961.931 352.922C961.843 353.878 961.606 354.815 961.229 355.697 960.85 356.24 960.364 356.698 959.801 357.043 959.193 357.407 958.52 357.645 957.82 357.746 958.518 359.965 958.873 362.279 958.871 364.606 958.817 374.844 952.064 383.82 942.288 386.651 941.555 386.865 940.988 387.452 940.795 388.196 940.107 390.38 938.513 392.157 936.423 393.068 935.56 393.482 934.638 393.758 933.69 393.885 933.261 392.471 933.474 390.939 934.271 389.698 934.926 388.575 934.552 387.131 933.436 386.472 933.322 386.405 933.203 386.347 933.08 386.3 931.677 385.838 930.55 384.775 930 383.397 930.818 382.898 931.709 382.532 932.64 382.31 934.822 381.707 937.156 382.077 939.048 383.324 939.628 383.748 940.428 383.685 940.935 383.175 944.12 379.983 945.912 375.647 945.914 371.123 945.905 369.011 945.438 366.927 944.548 365.015 943.57 366.333 942.027 367.102 940.393 367.087 939.468 366.866 938.582 366.499 937.769 366.001L937.435 365.827C937.137 365.655 936.989 365.304 937.073 364.969 937.68 362.79 939.237 361.007 941.306 360.122L941.306 360.113C938.953 357.536 936.775 355.608 935.919 350.324 935.357 346.835 937.711 343.548 941.178 342.982 942.355 342.79 943.561 342.935 944.66 343.399 948.98 345.207 952.657 348.285 955.21 352.231 957.15 351.118 959.486 350.948 961.564 351.768 961.871 351.901 962.047 352.229 961.989 352.56Z" fill="#D4D4D6" fill-rule="evenodd"/><path d="M764.6 262.923 685.4 262.923C682.973 262.93 681.007 264.901 681 267.334L681 320.259C681.007 322.692 682.973 324.663 685.4 324.67L716.2 324.67 716.2 331.286 705.2 331.286 705.2 337.901 744.8 337.901 744.8 331.286 733.8 331.286 733.8 324.67 764.6 324.67C767.027 324.663 768.993 322.692 769 320.259L769 267.334C768.993 264.901 767.027 262.93 764.6 262.923ZM762.4 318.054 687.6 318.054 687.6 269.539 762.4 269.539Z" fill="#252830" fill-rule="evenodd"/><path d="M699.292 305.727C703.1 305.606 713.843 305.837 722.572 311.489 722.984 311.76 723.466 311.906 723.96 311.909L727.074 311.909C727.547 311.906 728.011 311.772 728.411 311.521 737.565 305.867 747.976 305.609 751.706 305.725 752.398 305.747 752.977 305.21 752.999 304.524 753.001 304.471 752.999 304.419 752.995 304.366L751.109 284.184C751.05 283.542 750.505 283.051 749.855 283.054 749.541 283.056 749.158 283.066 748.729 283.083L748.402 279.62 747.472 279.554C746.503 279.513 745.533 279.54 744.568 279.634L744.271 276.231 743.443 276.082C736.844 275.274 730.234 277.501 725.5 282.13 720.766 277.502 714.156 275.274 707.557 276.082L706.729 276.23 706.432 279.634C705.467 279.54 704.497 279.513 703.528 279.554L702.598 279.62 702.271 283.083C701.842 283.066 701.459 283.056 701.146 283.054 700.495 283.051 699.95 283.542 699.892 284.184L698.006 304.368C697.94 305.05 698.444 305.656 699.132 305.722 699.185 305.727 699.238 305.729 699.292 305.727ZM726.601 284.134C730.658 279.941 736.38 277.743 742.228 278.131L743.933 297.715C737.544 298.875 731.57 301.667 726.601 305.813ZM726.601 308.809C734.158 301.144 745.137 299.73 745.249 299.717L746.304 299.589 744.758 281.822C745.417 281.762 745.976 281.732 746.39 281.722L748.257 301.49C740.393 301.708 732.805 304.413 726.601 309.209ZM708.771 278.138C714.615 277.779 720.324 279.97 724.4 284.136L724.4 305.814C719.431 301.667 713.457 298.875 707.067 297.715ZM704.611 281.72C705.025 281.728 705.584 281.757 706.242 281.817L704.696 299.59 705.751 299.717C705.863 299.73 716.827 301.125 724.4 308.81L724.4 309.21C718.196 304.413 710.608 301.708 702.743 301.49Z" fill="#F0513D" fill-rule="evenodd"/><path d="M730 294.294 730 296.913C732.74 294.821 735.778 293.199 739 292.107L738.84 289.915C735.714 290.933 732.738 292.406 730 294.294Z" fill="#F0513D" fill-rule="evenodd"/><path d="M738.832 283.917C735.712 284.945 732.741 286.4 730 288.242L730 290.915C732.747 288.87 735.781 287.266 739 286.16Z" fill="#F0513D" fill-rule="evenodd"/><g clip-path="url(#clip1)"><g clip-path="url(#clip2)"><g clip-path="url(#clip3)"><path d="M10.6219 26.183 10.6219 32.3968C10.6219 35.3178 17.2606 38.2388 25.4925 38.2388 33.7245 38.2388 40.3632 35.3178 40.3632 32.3968L40.3632 26.183 25.4925 31.4408 10.6219 26.183Z" fill="#D4D4D6" transform="matrix(1.00029 0 0 1 91 257.925)"/><path d="M25.4925 29.1571 48.6483 21.0314 25.4925 12.7463 2.33682 21.0314 5.31095 22.0935 5.31095 31.8657C5.31095 32.4499 5.78893 32.9279 6.37314 32.9279 6.95734 32.9279 7.43533 32.4499 7.43533 31.8657L7.43533 22.8371 25.4925 29.1571Z" fill="#D4D4D6" transform="matrix(1.00029 0 0 1 91 257.925)"/></g></g></g><g clip-path="url(#clip4)"><g clip-path="url(#clip5)"><g clip-path="url(#clip6)"><path d="M46.97 9.64521 46.2828 8.95798 47.3492 7.84268C47.9095 7.21014 48.046 5.93073 46.5855 4.41658 45.1096 2.93961 43.5923 3.08035 43.0351 3.63906L26.893 18.7057 32.0447 23.8573 44.8148 10.4939 45.4681 11.1471C45.7204 11.3735 45.7441 11.7606 45.5212 12.016L35.7841 21.7542C35.3621 22.1617 35.3505 22.8342 35.758 23.2561 36.1655 23.6781 36.838 23.6897 37.2599 23.2822 37.2688 23.2737 37.2775 23.265 37.286 23.2561L47.0247 13.518C48.0772 12.4327 48.0527 10.7003 46.97 9.64521Z" fill="#D4D4D6" transform="matrix(1.00029 0 0 1 744 412.879)"/><path d="M14.9068 31.0791C14.5035 31.4923 14.114 31.9188 13.7384 32.3585L9.13483 37.5564 13.1913 41.6134 18.3892 37.0067C18.8289 36.6328 19.2555 36.2433 19.6691 35.8383L30.428 25.4766 25.2711 20.3197Z" fill="#D4D4D6" transform="matrix(1.00029 0 0 1 744 412.879)"/><path d="M3.86849 44.3746C3.71889 44.6422 3.77542 44.9779 4.00445 45.1818L2.79197 47.1543C2.62887 47.4214 2.71318 47.7702 2.98029 47.9333 3.06759 47.9866 3.16768 48.0153 3.26995 48.0163 3.37704 48.0159 3.48181 47.9851 3.57214 47.9276L5.52498 46.7008C5.72722 46.9248 6.05671 46.9808 6.32162 46.8362L11.367 43.0431 7.6945 39.3711Z" fill="#D4D4D6" transform="matrix(1.00029 0 0 1 744 412.879)"/></g></g></g><g clip-path="url(#clip7)"><g clip-path="url(#clip8)"><g clip-path="url(#clip9)"><path d="M57.7371 9.62136 8.25157 9.62136C6.73505 9.62576 5.50678 10.854 5.50235 12.3706L5.50235 45.3609C5.50678 46.8774 6.73505 48.1056 8.25157 48.1101L27.4959 48.1101 27.4959 52.2339 20.623 52.2339 20.623 56.3577 45.3657 56.3577 45.3657 52.2339 38.4927 52.2339 38.4927 48.1101 57.7371 48.1101C59.2536 48.1056 60.4818 46.8774 60.4863 45.3609L60.4863 12.3706C60.4818 10.854 59.2536 9.62583 57.7371 9.62136ZM27.8396 43.9863 9.62617 43.9863 9.62617 29.8968 27.8396 29.8968ZM27.8396 27.8349 9.62617 27.8349 9.62617 13.7452 27.8396 13.7452ZM56.3625 43.9863 29.9015 43.9863 29.9015 13.7452 56.3625 13.7452Z" fill="#D4D4D6" transform="matrix(1.00029 0 0 1 134 443.87)"/><path d="M50.1768 31.9564C50.1926 31.3577 49.9091 30.7904 49.4208 30.4436 48.3329 29.5916 47.071 28.989 45.7246 28.6785 44.7151 28.3749 43.6702 28.2054 42.6165 28.1742 41.5604 28.1775 40.5113 28.3476 39.5084 28.6785 38.181 29.0421 36.9293 29.6398 35.8122 30.4436 35.3384 30.8027 35.059 31.362 35.0562 31.9564L35.0562 35.7387 50.1767 35.7387Z" fill="#D4D4D6" transform="matrix(1.00029 0 0 1 134 443.87)"/><path d="M46.3967 23.3834C46.3967 25.4711 44.7042 27.1635 42.6165 27.1635 40.5288 27.1635 38.8364 25.4711 38.8364 23.3834 38.8364 21.2956 40.5288 19.6032 42.6165 19.6032 44.7042 19.6032 46.3967 21.2956 46.3967 23.3834Z" fill="#D4D4D6" transform="matrix(1.00029 0 0 1 134 443.87)"/><path d="M23.3722 23.4104C23.3818 23.0419 23.2074 22.6928 22.9069 22.4794 22.2374 21.9551 21.4609 21.5843 20.6323 21.3932 20.0111 21.2063 19.368 21.102 18.7196 21.0828 18.0696 21.0848 17.4241 21.1896 16.8068 21.3932 15.99 21.6169 15.2198 21.9848 14.5323 22.4794 14.2408 22.7004 14.0687 23.0446 14.0671 23.4104L14.0671 25.738 23.3722 25.738Z" fill="#D4D4D6" transform="matrix(1.00029 0 0 1 134 443.87)"/><path d="M21.0465 18.1346C21.0465 19.4197 20.0047 20.4615 18.7196 20.4615 17.4345 20.4615 16.3927 19.4197 16.3927 18.1346 16.3927 16.8495 17.4345 15.8077 18.7196 15.8077 20.0047 15.8077 21.0465 16.8495 21.0465 18.1346Z" fill="#D4D4D6" transform="matrix(1.00029 0 0 1 134 443.87)"/><path d="M23.3722 39.5969C23.3818 39.2284 23.2074 38.8793 22.9069 38.6658 22.2374 38.1415 21.4609 37.7707 20.6323 37.5796 20.0111 37.3928 19.368 37.2885 18.7196 37.2693 18.0696 37.2713 17.4241 37.376 16.8068 37.5796 15.99 37.8034 15.2198 38.1712 14.5323 38.6658 14.2407 38.8868 14.0687 39.231 14.0671 39.5969L14.0671 41.9244 23.3722 41.9244Z" fill="#D4D4D6" transform="matrix(1.00029 0 0 1 134 443.87)"/><path d="M21.0465 34.3211C21.0465 35.6062 20.0047 36.648 18.7196 36.648 17.4345 36.648 16.3927 35.6062 16.3927 34.3211 16.3927 33.036 17.4345 31.9942 18.7196 31.9942 20.0047 31.9942 21.0465 33.036 21.0465 34.3211Z" fill="#D4D4D6" transform="matrix(1.00029 0 0 1 134 443.87)"/></g></g></g><g clip-path="url(#clip10)"><g clip-path="url(#clip11)"><g clip-path="url(#clip12)"><path d="M42.2793 1.20798 15.7037 1.20798C14.3711 1.21196 13.2918 2.2913 13.2878 3.62394L13.2878 54.3591C13.2918 55.6917 14.3711 56.7711 15.7037 56.7751L42.2793 56.7751C43.6119 56.7711 44.6913 55.6917 44.6953 54.3591L44.6953 3.62394C44.6913 2.2913 43.6119 1.21196 42.2793 1.20798ZM26.8776 3.62394 31.1055 3.62394C31.6058 3.62394 32.0115 4.02956 32.0115 4.52993 32.0115 5.03029 31.6058 5.43591 31.1055 5.43591L26.8776 5.43591C26.3772 5.43591 25.9716 5.03029 25.9716 4.52993 25.9716 4.02956 26.3772 3.62394 26.8776 3.62394ZM42.2793 50.1312 15.7037 50.1312 15.7037 7.85187 42.2793 7.85187Z" fill="#D4D4D6" transform="matrix(1.00029 0 0 1 177 145.957)"/><path d="M25.3676 24.1596C28.0362 24.1596 30.1995 21.9963 30.1995 19.3277 30.1995 16.6591 28.0362 14.4958 25.3676 14.4958 22.699 14.4958 20.5357 16.6591 20.5357 19.3277 20.5357 21.9963 22.699 24.1596 25.3676 24.1596ZM25.3573 16.3609C26.1052 16.3609 26.7115 16.9672 26.7115 17.715 26.7115 18.4629 26.1052 19.0692 25.3573 19.0692 24.6095 19.0692 24.0032 18.4629 24.0032 17.715 24.0052 16.968 24.6102 16.3629 25.3573 16.3609ZM22.6496 20.7616C22.6533 20.5488 22.7527 20.3492 22.9202 20.218 23.3205 19.93 23.7671 19.7125 24.2405 19.5747 24.6038 19.469 24.9796 19.4121 25.3579 19.4056 25.7364 19.407 26.1127 19.4639 26.4747 19.5747 26.9535 19.6984 27.4025 19.9171 27.795 20.218 27.9627 20.3491 28.0623 20.5488 28.0662 20.7616L28.0662 21.7962 22.6496 21.7962Z" fill="#D4D4D6" transform="matrix(1.00029 0 0 1 177 145.957)"/><path d="M26.9277 35.2126C27.2945 35.6983 27.5814 36.2395 27.7775 36.8156L31.3894 34.6485C30.9804 34.1986 30.6452 33.6867 30.3964 33.1319Z" fill="#D4D4D6" transform="matrix(1.00029 0 0 1 177 145.957)"/><path d="M28.2323 24.2919 31.0107 27.4193C31.3702 26.9281 31.8055 26.4972 32.3002 26.1425L29.6366 23.1461C29.2316 23.5994 28.7577 23.9861 28.2323 24.2919Z" fill="#D4D4D6" transform="matrix(1.00029 0 0 1 177 145.957)"/><path d="M35.6354 25.9716C32.9668 25.9716 30.8035 28.1349 30.8035 30.8035 30.8035 33.4721 32.9668 35.6354 35.6354 35.6354 38.304 35.6354 40.4673 33.4721 40.4673 30.8035 40.4673 28.1349 38.304 25.9716 35.6354 25.9716ZM35.6251 27.8367C36.373 27.8367 36.9793 28.443 36.9793 29.1908 36.9793 29.9387 36.373 30.545 35.6251 30.545 34.8773 30.545 34.271 29.9387 34.271 29.1908 34.273 28.4438 34.8781 27.8387 35.6251 27.8367ZM38.3334 33.2726 32.9175 33.2726 32.9175 32.2374C32.9211 32.0246 33.0206 31.825 33.188 31.6938 33.5884 31.4059 34.0349 31.1884 34.5084 31.0505 34.8717 30.9448 35.2474 30.8879 35.6258 30.8814 36.0043 30.8828 36.3806 30.9398 36.7425 31.0505 37.2214 31.1742 37.6704 31.3929 38.0629 31.6938 38.2305 31.8249 38.3301 32.0246 38.334 32.2374Z" fill="#D4D4D6" transform="matrix(1.00029 0 0 1 177 145.957)"/><path d="M23.5991 24.7835 22.489 32.9247C23.0974 32.9392 23.6997 33.0514 24.2725 33.2569L25.3899 25.0656 25.3676 25.0656C24.7669 25.0651 24.1701 24.9699 23.5991 24.7835Z" fill="#D4D4D6" transform="matrix(1.00029 0 0 1 177 145.957)"/><path d="M27.1796 38.6554C27.1796 35.9868 25.0162 33.8234 22.3476 33.8234 19.679 33.8234 17.5157 35.9868 17.5157 38.6554 17.5157 41.324 19.679 43.4873 22.3476 43.4873 25.0162 43.4873 27.1796 41.324 27.1796 38.6554ZM22.3374 35.6886C23.0852 35.6886 23.6915 36.2949 23.6915 37.0427 23.6915 37.7906 23.0852 38.3969 22.3374 38.3969 21.5895 38.3969 20.9832 37.7906 20.9832 37.0427 20.9852 36.2956 21.5903 35.6906 22.3374 35.6886ZM25.0451 41.1245 19.6297 41.1245 19.6297 40.0892C19.6334 39.8765 19.7328 39.6768 19.9003 39.5456 20.3007 39.2579 20.7472 39.0404 21.2206 38.9024 21.5838 38.7965 21.9596 38.7394 22.338 38.7327 22.7166 38.7342 23.0928 38.7914 23.4547 38.9024 23.9336 39.026 24.3826 39.2448 24.7751 39.5456 24.9426 39.6768 25.042 39.8765 25.0457 40.0892Z" fill="#D4D4D6" transform="matrix(1.00029 0 0 1 177 145.957)"/></g></g></g><g clip-path="url(#clip13)"><g clip-path="url(#clip14)"><g clip-path="url(#clip15)"><path d="M55.1127 9.18403 7.8765 9.18403C6.42892 9.18829 5.25649 10.3607 5.25224 11.8083L5.25224 43.2991C5.25648 44.7466 6.42891 45.919 7.8765 45.9233L26.2461 45.9233 26.2461 49.8596 19.6856 49.8596 19.6856 53.796 43.3036 53.796 43.3036 49.8596 36.7431 49.8596 36.7431 45.9233 55.1127 45.9233C56.5602 45.919 57.7327 44.7466 57.7369 43.2991L57.7369 11.8083C57.7327 10.3607 56.5602 9.18829 55.1127 9.18403ZM53.8006 41.9869 9.18862 41.9869 9.18862 13.1204 53.8006 13.1204Z" fill="#D4D4D6" transform="matrix(1.00029 0 0 1 1072 294.914)"/><path d="M31.4395 29.5571C32.4345 29.5577 33.2415 28.7516 33.2421 27.7566 33.2427 26.7616 32.4366 25.9546 31.4416 25.954 30.4466 25.9534 29.6396 26.7595 29.639 27.7545 29.639 27.7549 29.639 27.7552 29.639 27.7556 29.6387 28.7502 30.4448 29.5567 31.4395 29.5571Z" fill="#D4D4D6" transform="matrix(1.00029 0 0 1 1072 294.914)"/><path d="M21.2066 33.7306C21.7167 34.6014 22.8571 35.0218 24.4174 35.0218 25.4604 34.9992 26.4973 34.8581 27.5084 34.6014 28.3786 37.724 29.819 39.7657 31.4395 39.7657 33.0599 39.7657 34.5304 37.724 35.3706 34.6014 36.4278 34.8909 37.5159 35.0522 38.6116 35.0817 40.172 35.0817 41.3124 34.6614 41.8225 33.7907 42.6326 32.3794 41.6124 30.1576 39.3918 27.8757 41.7624 25.5036 42.8428 23.1917 42.0025 21.7505 41.4924 20.8797 40.3521 20.4593 38.7916 20.4593 37.6444 20.4865 36.505 20.658 35.4006 20.9698 34.5304 17.8172 33.09 15.7454 31.4395 15.7454 29.819 15.7454 28.3487 17.7871 27.5084 20.9098 26.4513 20.6202 25.3631 20.4588 24.2675 20.4293 22.707 20.4293 21.5667 20.8497 21.0565 21.7204 20.2163 23.1617 21.3266 25.4736 23.6373 27.8156 21.4166 30.0975 20.3964 32.3194 21.2066 33.7306ZM40.8022 33.1601C40.5321 33.6105 39.7518 33.8507 38.6415 33.8507 37.6478 33.8313 36.6601 33.6901 35.7007 33.4304 35.8935 32.4881 36.0337 31.5358 36.1209 30.578 36.9722 29.9912 37.7842 29.3493 38.5515 28.6563 40.4721 30.638 41.2523 32.3794 40.8022 33.1601ZM36.2109 26.6146C36.7511 27.0349 37.2312 27.4253 37.6813 27.8457 37.2312 28.236 36.751 28.6563 36.2109 29.0466 36.2409 28.6262 36.2409 28.2059 36.2409 27.7856 36.2409 27.3652 36.2409 26.9749 36.2109 26.6146ZM38.7916 21.6604C39.9019 21.6604 40.7122 21.9306 40.9522 22.351 41.4024 23.1316 40.5921 24.9631 38.5515 27.0049 37.7848 26.302 36.9729 25.65 36.1209 25.0533 36.0364 24.0635 35.8861 23.0805 35.6707 22.1108 36.688 21.8306 37.7365 21.6793 38.7916 21.6604ZM28.0786 31.3286C28.4086 31.5388 28.7087 31.719 29.0688 31.929 29.3989 32.1093 29.7589 32.3194 30.1191 32.4995 29.5189 32.7398 28.9488 32.9499 28.3786 33.1301 28.2587 32.5596 28.1686 31.9591 28.0786 31.3286ZM31.4395 38.5647C30.5392 38.5647 29.3989 37.0034 28.6487 34.3011 29.6295 33.9864 30.5913 33.6154 31.5295 33.1901 32.4075 33.5952 33.3095 33.9462 34.2303 34.2411 33.48 37.0034 32.3398 38.5647 31.4395 38.5647ZM34.5304 33.1C34.0203 32.9199 33.48 32.7398 32.94 32.4995 33.3 32.3194 33.6602 32.1093 34.0203 31.8991 34.2903 31.7489 34.5604 31.5988 34.8005 31.4487 34.7105 32.0192 34.6205 32.5896 34.5304 33.1ZM34.8305 24.1826C34.5003 23.9724 34.2003 23.7922 33.8402 23.582 33.5401 23.4319 33.24 23.2518 32.9099 23.0716 33.45 22.8314 33.9902 22.6513 34.5304 22.4711 34.6504 23.0115 34.7404 23.582 34.8305 24.1826ZM31.4395 16.9464C32.3398 16.9464 33.5101 18.5378 34.2603 21.3001 33.39 21.6003 32.4598 21.9606 31.5295 22.381 30.5917 21.9463 29.6298 21.5654 28.6487 21.24 29.3989 18.5077 30.5392 16.9464 31.4395 16.9464ZM28.3487 22.4111C28.9188 22.5912 29.5189 22.8314 30.1191 23.0716 29.819 23.2217 29.4889 23.4019 29.1889 23.582 28.8288 23.8222 28.4387 24.0624 28.0485 24.3026 28.1385 23.6421 28.2285 23.0115 28.3487 22.4111ZM27.8985 25.8339C28.4986 25.4136 29.1289 25.0232 29.819 24.633 30.3893 24.3026 30.9594 24.0023 31.5295 23.7322 32.0997 24.0024 32.6699 24.3027 33.24 24.633 33.8402 24.9932 34.4404 25.3536 34.9806 25.7138 35.0406 26.3744 35.0406 27.0349 35.0406 27.7556 35.0406 28.5062 35.0106 29.2268 34.9506 29.9174 34.4704 30.2477 33.9603 30.5479 33.4201 30.8782 32.7899 31.2385 32.1597 31.5688 31.5295 31.869 30.8994 31.5687 30.2692 31.2385 29.639 30.8782 29.0388 30.5179 28.4387 30.1576 27.8985 29.7972 27.8385 29.1367 27.8385 28.4762 27.8385 27.7556 27.8385 27.095 27.8685 26.4645 27.8985 25.8339ZM24.4174 33.8507C23.3072 33.8507 22.497 33.5805 22.2569 33.1601 21.8068 32.3794 22.587 30.638 24.5074 28.6563 25.1978 29.2568 25.948 29.8573 26.7582 30.4578 26.8405 31.4676 26.9909 32.4707 27.2082 33.4603 26.2991 33.7125 25.3608 33.8437 24.4174 33.8507ZM26.6682 28.8965C26.2198 28.5587 25.7891 28.1979 25.3778 27.8156 25.7679 27.4553 26.218 27.095 26.6682 26.7347 26.6682 27.065 26.6381 27.3952 26.6381 27.7556 26.6381 28.1459 26.6381 28.5362 26.6682 28.8965ZM22.0769 22.351C22.3469 21.9006 23.1271 21.6604 24.2374 21.6604 25.2311 21.6819 26.2184 21.8231 27.1783 22.0808 26.9611 23.1007 26.8107 24.1338 26.7281 25.1734 25.9356 25.73 25.1836 26.342 24.4775 27.0049 22.4669 24.9631 21.6266 23.1316 22.0769 22.351Z" fill="#D4D4D6" transform="matrix(1.00029 0 0 1 1072 294.914)"/></g></g></g><path d="M1096 498.354C1096 494.213 1099.36 490.856 1103.5 490.856 1107.64 490.856 1111 494.213 1111 498.354 1111 502.495 1107.64 505.852 1103.5 505.852 1099.36 505.852 1096 502.495 1096 498.354Z" fill="#FFFFFF" fill-rule="evenodd"/><path d="M1111 512.85C1111 508.985 1114.13 505.852 1118 505.852 1121.87 505.852 1125 508.985 1125 512.85 1125 516.715 1121.87 519.848 1118 519.848 1114.13 519.848 1111 516.715 1111 512.85Z" fill="#FFFFFF" fill-rule="evenodd"/><path d="M1082 483.859C1082 479.994 1085.13 476.861 1089 476.861 1092.87 476.861 1096 479.994 1096 483.859 1096 487.723 1092.87 490.856 1089 490.856 1085.13 490.856 1082 487.723 1082 483.859Z" fill="#FFFFFF" fill-rule="evenodd"/><rect x="219" y="290.915" width="14" height="13.9959" fill="#FFFFFF"/><rect x="233" y="304.911" width="14" height="14.9956" fill="#FFFFFF"/><rect x="247" y="319.906" width="15" height="13.9959" fill="#FFFFFF"/><rect x="880" y="205.94" width="14" height="13.9959" fill="#FFFFFF"/><rect x="866" y="219.936" width="14" height="14.9956" fill="#FFFFFF"/><rect x="851" y="234.931" width="15" height="13.9959" fill="#FFFFFF"/><rect x="53.0001" y="490.856" width="14" height="14.9956" fill="#FFFFFF"/><rect x="37.9999" y="505.852" width="15" height="13.9959" fill="#FFFFFF"/><rect x="24" y="519.848" width="14" height="13.9959" fill="#FFFFFF"/><path d="M361 512.85C364.866 512.85 368 515.983 368 519.848 368 523.713 364.866 526.846 361 526.846 357.134 526.846 354 523.713 354 519.848 354 515.983 357.134 512.85 361 512.85Z" fill="#FFFFFF" fill-rule="evenodd"/><path d="M347 526.846C350.866 526.846 354 530.203 354 534.344 354 538.485 350.866 541.841 347 541.841 343.134 541.841 340 538.485 340 534.344 340 530.203 343.134 526.846 347 526.846Z" fill="#FFFFFF" fill-rule="evenodd"/><path d="M375.5 497.854C379.642 497.854 383 501.211 383 505.352 383 509.493 379.642 512.85 375.5 512.85 371.358 512.85 368 509.493 368 505.352 368 501.211 371.358 497.854 375.5 497.854Z" fill="#FFFFFF" fill-rule="evenodd"/><rect x="1199" y="203.94" width="15" height="13.9959" fill="#FFFFFF"/><rect x="1185" y="189.944" width="14" height="13.9959" fill="#FFFFFF"/><rect x="1170" y="174.949" width="15" height="14.9956" fill="#FFFFFF"/><path d="M566 443.87C566 440.005 569.134 436.872 573 436.872 576.866 436.872 580 440.005 580 443.87 580 447.735 576.866 450.868 573 450.868 569.134 450.868 566 447.735 566 443.87Z" fill="#FFFFFF" fill-rule="evenodd"/><path d="M580 458.366C580 454.225 583.358 450.868 587.5 450.868 591.642 450.868 595 454.225 595 458.366 595 462.507 591.642 465.864 587.5 465.864 583.358 465.864 580 462.507 580 458.366Z" fill="#FFFFFF" fill-rule="evenodd"/><path d="M552 429.874C552 426.009 555.134 422.876 559 422.876 562.866 422.876 566 426.009 566 429.874 566 433.739 562.866 436.872 559 436.872 555.134 436.872 552 433.739 552 429.874Z" fill="#FFFFFF" fill-rule="evenodd"/><path d="M81 171.95C81 168.085 84.3579 164.952 88.5 164.952 92.6421 164.952 96 168.085 96 171.95 96 175.815 92.6421 178.948 88.5 178.948 84.3579 178.948 81 175.815 81 171.95Z" fill="#FFFFFF" fill-rule="evenodd"/><path d="M96 186.445C96 182.305 99.134 178.948 103 178.948 106.866 178.948 110 182.305 110 186.445 110 190.586 106.866 193.943 103 193.943 99.134 193.943 96 190.586 96 186.445Z" fill="#FFFFFF" fill-rule="evenodd"/><path d="M67 157.954C67 154.089 70.134 150.956 74 150.956 77.866 150.956 81 154.089 81 157.954 81 161.819 77.866 164.952 74 164.952 70.134 164.952 67 161.819 67 157.954Z" fill="#FFFFFF" fill-rule="evenodd"/><path d="M858 66.4806C858 55.162 868.074 45.9866 880.5 45.9866 892.926 45.9866 903 55.162 903 66.4806 903 77.7991 892.926 86.9746 880.5 86.9746 868.074 86.9746 858 77.7991 858 66.4806Z" fill="#F4F4F5" fill-rule="evenodd"/><g clip-path="url(#clip16)"><g clip-path="url(#clip17)"><g clip-path="url(#clip18)"><path d="M19.4943 32.1781C17.12 33.1153 14.9331 34.365 12.9337 35.927 11.5591 37.0517 10.6844 38.7387 10.6219 40.5506L9.5597 49.7979C9.37226 51.1725 9.99708 52.5471 11.1217 53.2969 12.2464 54.0467 13.4336 54.609 14.6832 55.1089L15.2455 55.1089 15.2455 52.6721C14.3083 52.2972 13.3711 51.7974 12.4963 51.235 12.1215 50.9851 11.934 50.5477 11.9965 50.1103L13.1212 40.7381 13.1212 40.6131C13.1836 39.4885 13.6835 38.4887 14.5582 37.8014 16.2453 36.3644 18.682 35.0522 22.0561 33.8026 23.9305 34.9273 26.8047 35.6146 29.9912 35.6146 33.1778 35.6146 36.052 34.9273 37.9264 33.8026 41.3629 35.0522 43.7372 36.3644 45.4242 37.8014 46.299 38.4887 46.7988 39.5509 46.8613 40.6131L47.986 50.0479C48.0485 50.4852 47.861 50.9226 47.4861 51.1725L47.4861 51.1725C46.6114 51.7349 45.7366 52.2347 44.7369 52.6096L44.7369 55.0464 45.2993 55.0464C46.5489 54.609 47.736 53.9842 48.8607 53.2344L48.8607 53.2344C49.9854 52.4222 50.6102 51.1101 50.4228 49.7355L49.3606 40.5506C49.2981 38.7387 48.4233 37.0517 47.0487 35.927 45.0493 34.365 42.8625 33.0528 40.4882 32.1781 40.4882 28.9915 40.6131 20.2441 40.6131 16.6826 40.6131 15.6829 40.4882 14.6832 40.2382 13.6835 39.426 10.6844 37.3641 8.18511 34.6149 6.74803 34.365 6.62306 33.9901 6.62306 33.8026 6.81051L33.2403 7.24788 32.6155 6.37314C32.428 6.06073 32.1156 5.87328 31.8032 5.8108 31.1784 5.68584 30.616 5.62336 29.9912 5.62336 27.492 5.62336 24.9927 6.56058 23.1182 8.18511 20.7439 10.3095 19.4318 13.3086 19.4943 16.4952L19.4943 32.1781ZM22.6184 21.9936 23.0558 16.8701 36.8642 16.8701 37.3016 21.9936C36.5518 26.0549 32.6779 28.7416 28.5542 27.9918 25.555 27.4295 23.1807 25.0552 22.6184 21.9936ZM25.1177 32.428C25.805 31.8657 26.2423 30.9285 26.2423 29.9912L26.2423 29.8663C28.6166 30.866 31.3658 30.866 33.7401 29.8663L33.7401 29.9912C33.7401 30.9285 34.1775 31.8032 34.8648 32.428 33.3028 32.9279 31.6158 33.1153 29.9912 33.1153 28.3667 33.1153 26.6797 32.9279 25.1177 32.428Z" fill="#D4D4D6" transform="matrix(1.00029 0 0 1 843 27.9918)"/><path d="M43.4873 40.8006C43.4873 39.9258 42.8 39.2385 41.9252 39.2385L41.9252 39.2385 18.1197 39.2385C17.245 39.2385 16.5577 39.9258 16.5577 40.8006L16.5577 40.8006 16.5577 56.3585 11.809 56.3585 11.809 57.1708C11.809 58.0455 12.4963 58.7328 13.3711 58.7328L46.6739 58.7328C47.5486 58.7328 48.2359 58.0455 48.2359 57.1708L48.2359 56.3585 43.4873 56.3585 43.4873 40.8006ZM26.7422 51.1101 25.8674 51.9848 22.3685 48.4858 25.8674 44.9868 26.7422 45.8616 24.1179 48.4858 26.7422 51.1101ZM29.1165 52.4222 27.9918 51.9223 30.9285 44.8619 32.0531 45.3617 29.1165 52.4222ZM34.115 52.0473 33.2403 51.1725 35.8645 48.5483 33.2403 45.9241 34.115 45.0493 37.614 48.5483 34.115 52.0473Z" fill="#D4D4D6" transform="matrix(1.00029 0 0 1 843 27.9918)"/></g></g></g></g></svg>